<svg id="visual" viewBox="0 0 900 600" width="900" height="600" xmlns="http://www.w3.org/2000/svg" xmlns:xlink="http://www.w3.org/1999/xlink" version="1.1"><rect x="0" y="0" width="900" height="600" fill="#002233"></rect><path d="M0 469L21.5 460.8C43 452.7 86 436.3 128.8 425.8C171.7 415.3 214.3 410.7 257.2 416.8C300 423 343 440 385.8 453C428.7 466 471.3 475 514.2 465.2C557 455.3 600 426.7 642.8 418C685.7 409.3 728.3 420.7 771.2 435.8C814 451 857 470 878.5 479.5L900 489L900 601L878.5 601C857 601 814 601 771.2 601C728.3 601 685.7 601 642.8 601C600 601 557 601 514.2 601C471.3 601 428.7 601 385.8 601C343 601 300 601 257.2 601C214.3 601 171.7 601 128.8 601C86 601 43 601 21.5 601L0 601Z" fill="#0066FF" stroke-linecap="round" stroke-linejoin="miter"></path></svg>